<svg xmlns="http://www.w3.org/2000/svg" viewBox="0 0 64 64" fill="none">
  <defs>
    <linearGradient id="bg" x1="10" y1="8" x2="54" y2="58" gradientUnits="userSpaceOnUse">
      <stop stop-color="#16361F"/>
      <stop offset="1" stop-color="#1F4D2B"/>
    </linearGradient>
    <linearGradient id="map" x1="14" y1="8" x2="50" y2="54" gradientUnits="userSpaceOnUse">
      <stop stop-color="#2A5A3C" stop-opacity="0.55"/>
      <stop offset="1" stop-color="#16361F" stop-opacity="0.85"/>
    </linearGradient>
    <clipPath id="rs">
      <path d="M18 5.5C25 3.5 33 4.5 40 7.5C46.5 10.5 50 15.5 51 22C52 28.5 50.5 35 47 41C43.5 47 37.5 52.5 31 55C27.5 56.5 25 56 22.5 53.5C18 49 14.5 42 13 33.5C11.5 25 12 16 14.5 9.5C15.5 7 17 5.5 18 5.5Z"/>
    </clipPath>
  </defs>
  <rect width="64" height="64" rx="14" fill="url(#bg)"/>
  <path d="M18 5.5C25 3.5 33 4.5 40 7.5C46.5 10.5 50 15.5 51 22C52 28.5 50.5 35 47 41C43.5 47 37.5 52.5 31 55C27.5 56.5 25 56 22.5 53.5C18 49 14.5 42 13 33.5C11.5 25 12 16 14.5 9.5C15.5 7 17 5.5 18 5.5Z" fill="url(#map)"/>
  <g clip-path="url(#rs)">
    <path d="M14 41.5C21 37.5 29 36 37 37.5C43 38.5 47.5 40.5 50 42.5" stroke="#D4A85A" stroke-width="0.9" stroke-linecap="round" opacity="0.55"/>
    <path d="M31.5 27.5C33.2 24.8 36.2 23.6 39.2 24.6C42.2 25.6 43.4 28.4 42.4 31.2C41.4 33.8 38.6 35.4 35.8 34.8C33 34.1 31.4 31.2 31.5 27.5Z" fill="#F7F1E8"/>
    <path d="M38.8 25.2L42.8 17.8" stroke="#C8923E" stroke-width="1.25" stroke-linecap="round"/>
    <circle cx="43.2" cy="16.8" r="1.15" fill="#C8923E"/>
  </g>
  <path d="M18 5.5C25 3.5 33 4.5 40 7.5C46.5 10.5 50 15.5 51 22C52 28.5 50.5 35 47 41C43.5 47 37.5 52.5 31 55C27.5 56.5 25 56 22.5 53.5C18 49 14.5 42 13 33.5C11.5 25 12 16 14.5 9.5C15.5 7 17 5.5 18 5.5Z" stroke="#C8923E" stroke-width="1.85" stroke-linejoin="round" fill="none"/>
</svg>
