<svg xmlns="http://www.w3.org/2000/svg" viewBox="0 0 64 64" fill="none">
  <defs>
    <linearGradient id="te-bg" x1="8" y1="6" x2="56" y2="58" gradientUnits="userSpaceOnUse">
      <stop stop-color="#16361F"/>
      <stop offset="1" stop-color="#1F4D2B"/>
    </linearGradient>
    <clipPath id="rs-favicon">
      <path d="M17 4C24 2.5 32 3.5 39 6.5C46 9.5 50.5 14 51.5 20.5C52.5 27 51 33.5 47.5 39.5C44 45.5 38.5 51 31.5 54C28 55.5 25.5 55 23 52.5C18.5 48 14.5 41 13 32.5C11.5 24 12 15 14.5 8.5C15.5 6 16.5 4.5 17 4Z"/>
    </clipPath>
  </defs>
  <rect width="64" height="64" rx="14" fill="url(#te-bg)"/>
  <path d="M17 4C24 2.5 32 3.5 39 6.5C46 9.5 50.5 14 51.5 20.5C52.5 27 51 33.5 47.5 39.5C44 45.5 38.5 51 31.5 54C28 55.5 25.5 55 23 52.5C18.5 48 14.5 41 13 32.5C11.5 24 12 15 14.5 8.5C15.5 6 16.5 4.5 17 4Z" fill="#2F6844" fill-opacity="0.5"/>
  <g clip-path="url(#rs-favicon)">
    <path d="M14.5 36.5C21 32.5 28 31 35 32.5C42 34 47 36.5 50 39.5V43C43 39.5 35.5 38 28.5 39C21.5 40 17 41 14.5 42.5V36.5Z" fill="#C8923E"/>
    <path d="M30.5 27C32.5 23.8 36 22.5 39.5 23.5C43 24.5 44.5 27.5 43.5 30.5C42.5 33.5 39.5 35.5 36.5 35C33.5 34.5 31.5 31.5 30.5 27Z" fill="#F7F1E8"/>
    <path d="M39 24L44.5 14.5" stroke="#C8923E" stroke-width="1.7" stroke-linecap="round"/>
    <circle cx="45.2" cy="13.5" r="2" fill="#C8923E"/>
  </g>
  <path d="M17 4C24 2.5 32 3.5 39 6.5C46 9.5 50.5 14 51.5 20.5C52.5 27 51 33.5 47.5 39.5C44 45.5 38.5 51 31.5 54C28 55.5 25.5 55 23 52.5C18.5 48 14.5 41 13 32.5C11.5 24 12 15 14.5 8.5C15.5 6 16.5 4.5 17 4Z" stroke="#C8923E" stroke-width="2.5" stroke-linejoin="round" fill="none"/>
</svg>
