<svg xmlns="http://www.w3.org/2000/svg" viewBox="0 0 64 64" fill="none">
  <defs>
    <clipPath id="rs">
      <path d="M18 5.5C25 3.5 33 4.5 40 7.5C46.5 10.5 50 15.5 51 22C52 28.5 50.5 35 47 41C43.5 47 37.5 52.5 31 55C27.5 56.5 25 56 22.5 53.5C18 49 14.5 42 13 33.5C11.5 25 12 16 14.5 9.5C15.5 7 17 5.5 18 5.5Z"/>
    </clipPath>
  </defs>
  <rect width="64" height="64" rx="14" fill="#143623"/>
  <rect x="10" y="10" width="44" height="44" rx="10" stroke="#C8A46A" stroke-width="1.1" fill="none"/>
  <path d="M18 5.5C25 3.5 33 4.5 40 7.5C46.5 10.5 50 15.5 51 22C52 28.5 50.5 35 47 41C43.5 47 37.5 52.5 31 55C27.5 56.5 25 56 22.5 53.5C18 49 14.5 42 13 33.5C11.5 25 12 16 14.5 9.5C15.5 7 17 5.5 18 5.5Z" stroke="#C8A46A" stroke-width="1.35" stroke-linejoin="round" fill="none"/>
  <g clip-path="url(#rs)">
    <text x="21.5" y="37.5" fill="#C8A46A" font-family="Georgia, serif" font-size="21" font-weight="700">T</text>
    <text x="32.5" y="37" fill="#F7F1E8" font-family="Georgia, serif" font-size="15.5" font-weight="700">E</text>
  </g>
</svg>
