<svg xmlns="http://www.w3.org/2000/svg" viewBox="0 0 100 100" fill="none">
  <defs>
    <linearGradient id="gold" x1="18" y1="10" x2="82" y2="90" gradientUnits="userSpaceOnUse">
      <stop offset="0%" stop-color="#D9BC82"/>
      <stop offset="50%" stop-color="#C5A059"/>
      <stop offset="100%" stop-color="#9E7840"/>
    </linearGradient>
    <clipPath id="rs">
      <path d="M24 12C32 9 42 9 50 13C58 17 64 25 66 35C68 45 65 55 58 65C51 75 40 84 30 88C24 90 19 86 16 78C12 68 10 52 12 36C14 22 18 14 24 12Z"/>
    </clipPath>
  </defs>
  <rect width="100" height="100" rx="18" fill="#1A2F23"/>
  <path d="M24 12C32 9 42 9 50 13C58 17 64 25 66 35C68 45 65 55 58 65C51 75 40 84 30 88C24 90 19 86 16 78C12 68 10 52 12 36C14 22 18 14 24 12Z" stroke="url(#gold)" stroke-width="1.15" stroke-linejoin="round" fill="none"/>
  <g clip-path="url(#rs)">
    <path d="M22 28h18v4.2H33.2V54h-4.8V32.2H22V28z" fill="url(#gold)"/>
    <path d="M39 36h15v4H44v4.8h8.5V49H44v4.8h10.5V58H39V36z" fill="url(#gold)"/>
  </g>
</svg>
